<svg width="56" height="56" fill="none" xmlns="http://www.w3.org/2000/svg"><g clip-path="url(#clip0)"><g filter="url(#filter0_i)"><path d="M47.19 28c0 10.598-8.592 19.19-19.19 19.19C17.4 47.19 8.81 38.598 8.81 28S17.4 8.81 28 8.81c10.598 0 19.19 8.592 19.19 19.19z" fill="url(#paint0_radial)"/></g><path d="M28 8.167C17.078 8.167 8.167 17.052 8.167 28c0 10.922 8.911 19.833 19.833 19.833 10.948 0 19.833-8.885 19.833-19.833 0-10.948-8.885-19.833-19.833-19.833zm-6.664 1.85c-1.163 1.111-2.591 3.095-3.015 3.703-2.089.608-4.284 1.877-5.632 2.724 2.221-2.883 5.183-5.13 8.647-6.426zm22.822 7.643c.026.635.053 2.116-.424 3.65-.952.052-5.368.29-6.029.343-3.041-3.49-6.373-5.844-6.664-6.055.053-1.032.212-4.364.291-5.422.793-.211 2.036-.37 2.592-.423a19.308 19.308 0 0110.234 7.907zM38.18 42.121c-.502.265-3.702 1.984-7.616 2.301-3.094-1.64-4.971-4.258-5.527-5.104.37-1.005 2.09-5.712 2.486-6.743 1.19-.212 4.205-.846 8.198-2.565.793.714 4.39 3.966 5.13 4.575-.106 1.11-.45 4.178-2.67 7.536zM23.293 18.215c2.38-1.03 6.637-2.01 7.51-2.22.476.316 3.676 2.617 6.585 6.002l.08-.08-1.931 7.67c-3.993 1.718-7.008 2.353-8.145 2.565l-5.924-5.369c.08-2.882 1.481-7.51 1.825-8.568zm7.775-8.435c-1.217-.556-2.486-.82-3.518-.952H28c1.666 0 3.306.211 4.866.634-.608.08-1.296.186-1.798.318zm-12.64 4.363c.766.688 3.543 3.2 4.415 4.02-.396 1.242-1.692 5.632-1.824 8.515-.846.45-5.5 2.988-6.373 3.464-2.645-1.27-4.258-3.623-4.655-4.284 0-.767 0-3.729.926-6.558.317-.635.688-1.243 1.084-1.851.926-.662 3.808-2.539 6.426-3.306zM8.827 28c0-.397.026-.793.026-1.19.37-.397.635-.555.82-.661.503.82 2.09 3.094 4.76 4.363 0 .423.212 1.455.979 4.02.502 1.719 1.084 3.411 1.242 3.887l-2.485 2.83A18.983 18.983 0 018.828 28zm8.171 10.71c.74.212 3.253.82 7.643.846.555.9 2.406 3.49 5.553 5.183-.212.582-.82 1.375-1.719 2.433h-.502a19.158 19.158 0 01-13.514-5.58L17 38.71zm22.637 4.522l-1.058-.9c2.327-3.516 2.644-6.663 2.67-7.774 3.57-2.221 4.681-4.099 4.972-4.813l.82.582c-.635 5.262-3.411 9.837-7.404 12.905zm6.637-13.99c-.106-.502-.502-2.194-.925-3.86-.661-2.565-1.005-3.517-1.217-3.887.37-1.19.476-2.301.476-3.094a18.98 18.98 0 012.565 9.573 20.6 20.6 0 01-.08 1.824l-.819-.555z" fill="url(#paint1_linear)"/></g><defs><radialGradient id="paint0_radial" cx="0" cy="0" r="1" gradientUnits="userSpaceOnUse" gradientTransform="matrix(15.58191 19.55375 -17.56356 13.99598 22.773 21.74)"><stop offset="0" stop-color="#E2F3E6"/><stop offset="1" stop-color="#99D7A8"/></radialGradient><linearGradient id="paint1_linear" x1="8.167" y1="8.167" x2="47.833" y2="47.833" gradientUnits="userSpaceOnUse"><stop stop-color="#4FBA6A"/><stop offset="1" stop-color="#1D4927"/></linearGradient><clipPath id="clip0"><rect x="8.81" y="8.81" width="38.38" height="38.38" rx="19.19" fill="#fff"/></clipPath><filter id="filter0_i" x="8.81" y="8.81" width="38.38" height="40.38" filterUnits="userSpaceOnUse" color-interpolation-filters="sRGB"><feFlood flood-opacity="0" result="BackgroundImageFix"/><feBlend in="SourceGraphic" in2="BackgroundImageFix" result="shape"/><feColorMatrix in="SourceAlpha" values="0 0 0 0 0 0 0 0 0 0 0 0 0 0 0 0 0 0 127 0" result="hardAlpha"/><feOffset dy="2"/><feGaussianBlur stdDeviation="2"/><feComposite in2="hardAlpha" operator="arithmetic" k2="-1" k3="1"/><feColorMatrix values="0 0 0 0 0.0784314 0 0 0 0 0.517647 0 0 0 0 0.184314 0 0 0 0.1 0"/><feBlend in2="shape" result="effect1_innerShadow"/></filter></defs></svg>