<svg width="56" height="56" fill="none" xmlns="http://www.w3.org/2000/svg"><path d="M13.857 11.107a2.333 2.333 0 012.333-2.334h24.787c.644 0 1.166.523 1.166 1.167v36.12c0 .644-.522 1.167-1.166 1.167H16.19a2.333 2.333 0 01-2.333-2.334V11.107z" fill="url(#paint0_linear)"/><path d="M13.857 11.107a2.333 2.333 0 012.333-2.334h23.98c.645 0 1.167.523 1.167 1.167v36.12c0 .644-.523 1.167-1.167 1.167H16.19a2.333 2.333 0 01-2.333-2.334V11.107z" fill="url(#paint1_linear)"/><path d="M13.857 11.107a2.333 2.333 0 012.333-2.334H39.41c.644 0 1.166.523 1.166 1.167v36.12c0 .644-.522 1.167-1.166 1.167H16.19a2.333 2.333 0 01-2.333-2.334V11.107z" fill="url(#paint2_linear)"/><path d="M13.857 11.107a2.333 2.333 0 012.333-2.334h22.22c.645 0 1.167.523 1.167 1.167v36.12c0 .644-.522 1.167-1.166 1.167H16.19a2.333 2.333 0 01-2.334-2.334V11.107z" fill="url(#paint3_linear)"/><g filter="url(#filter0_i)"><path d="M21.957 32.663c0-.129.104-.233.232-.233H33.39c.13 0 .233.104.233.233v.662c0 .645-.52 1.167-1.165 1.167H27.79c-1.688 0-3.483.037-4.63.067a1.173 1.173 0 01-1.203-1.172v-.724z" fill="#fff"/></g><g filter="url(#filter1_i)"><path fill-rule="evenodd" clip-rule="evenodd" d="M35.957 23.774a3.502 3.502 0 01-2.612 3.387v4.098c0 .322-.26.584-.582.584H22.54a.582.582 0 01-.583-.584v-4.184a3.501 3.501 0 011.167-6.8h.015a5.205 5.205 0 00-.54 2.7c.011.146.145.25.291.233a.28.28 0 00.24-.299 4.67 4.67 0 01.587-2.584h.003a4.665 4.665 0 014.071-2.384c1.748 0 3.272.961 4.071 2.384a3.5 3.5 0 014.095 3.45z" fill="#fff"/></g><path d="M13.857 11.107a2.333 2.333 0 012.334-2.334h.345v38.454h-.346a2.333 2.333 0 01-2.333-2.334V11.107z" fill="#14842F"/><defs><linearGradient id="paint0_linear" x1="13.857" y1="8.773" x2="50.566" y2="35.776" gradientUnits="userSpaceOnUse"><stop stop-color="#4FBA6A"/><stop offset="1" stop-color="#1D4927"/></linearGradient><linearGradient id="paint1_linear" x1="13.857" y1="28" x2="41.337" y2="28" gradientUnits="userSpaceOnUse"><stop offset="0" stop-color="#DAF1E0"/><stop offset="1" stop-color="#88C597"/></linearGradient><linearGradient id="paint2_linear" x1="40.575" y1="23.978" x2="13.857" y2="24.078" gradientUnits="userSpaceOnUse"><stop offset="0" stop-color="#DAF1E0"/><stop offset="1" stop-color="#91D4A2"/></linearGradient><linearGradient id="paint3_linear" x1="13.857" y1="8.773" x2="49.397" y2="32.545" gradientUnits="userSpaceOnUse"><stop stop-color="#97C93D"/><stop offset="1" stop-color="#4FBA69"/></linearGradient><filter id="filter0_i" x="21.957" y="32.43" width="11.667" height="4.129" filterUnits="userSpaceOnUse" color-interpolation-filters="sRGB"><feFlood flood-opacity="0" result="BackgroundImageFix"/><feBlend in="SourceGraphic" in2="BackgroundImageFix" result="shape"/><feColorMatrix in="SourceAlpha" values="0 0 0 0 0 0 0 0 0 0 0 0 0 0 0 0 0 0 127 0" result="hardAlpha"/><feOffset dy="2"/><feGaussianBlur stdDeviation="2"/><feComposite in2="hardAlpha" operator="arithmetic" k2="-1" k3="1"/><feColorMatrix values="0 0 0 0 0.00784314 0 0 0 0 0.756863 0 0 0 0 1 0 0 0 0.1 0"/><feBlend in2="shape" result="effect1_innerShadow"/></filter><filter id="filter1_i" x="19.623" y="17.941" width="16.333" height="15.901" filterUnits="userSpaceOnUse" color-interpolation-filters="sRGB"><feFlood flood-opacity="0" result="BackgroundImageFix"/><feBlend in="SourceGraphic" in2="BackgroundImageFix" result="shape"/><feColorMatrix in="SourceAlpha" values="0 0 0 0 0 0 0 0 0 0 0 0 0 0 0 0 0 0 127 0" result="hardAlpha"/><feOffset dy="2"/><feGaussianBlur stdDeviation="2"/><feComposite in2="hardAlpha" operator="arithmetic" k2="-1" k3="1"/><feColorMatrix values="0 0 0 0 0.00784314 0 0 0 0 0.756863 0 0 0 0 1 0 0 0 0.1 0"/><feBlend in2="shape" result="effect1_innerShadow"/></filter></defs></svg>