<svg width="56" height="56" fill="none" xmlns="http://www.w3.org/2000/svg"><path d="M33.791 8.91l-2.546 6.258a.718.718 0 01-.928.4.689.689 0 01-.436-.691l.345-6.749c.055-1.018.928-1.819 1.947-1.764 1.018.054 1.819.927 1.764 1.946-.018.2-.073.418-.145.6z" fill="#F06036"/><path d="M44.215 6h-4.148c-.31 0-1.146.091-1.51.8-.364.692-5.13 9.568-5.13 9.568a.83.83 0 00.128.964.813.813 0 001.164 0l.018-.018 9.932-9.568c.146-.145.419-.327.419-.855 0-.454-.437-.891-.873-.891z" fill="#4EB869"/><path d="M43.305 18.406l-6.421 2.091a.7.7 0 01-.892-.454.709.709 0 01.255-.782l5.384-4.093a1.857 1.857 0 112.238 2.965c-.182.109-.364.218-.564.273z" fill="#F06036"/><path d="M46.124 21.825c0-.072-.018-.127-.018-.2a.665.665 0 00-.637-.49h-.036l-.164.035-7.876 1.638-.127.018a.646.646 0 00-.455.582V23.517a8.128 8.128 0 01-8.458 8.095c-4.184-.164-7.604-3.547-7.786-7.731a8.114 8.114 0 016.549-8.35c.036-.018.073-.018.109-.018a.64.64 0 00.473-.563l-.018-.219-.673-7.876-.019-.255a.667.667 0 00-.6-.473c-.073.019-.145.019-.236.037-8.495 1.218-15.025 8.513-15.025 17.353 0 5.82 2.837 10.969 7.185 14.152l-1.892.327a.483.483 0 00-.328.2l-6.366 9.186a.833.833 0 00.2 1.146l1.82 1.274a.833.833 0 001.145-.2l6.367-9.168a.476.476 0 00.072-.382l-.436-1.928a17.493 17.493 0 009.732 2.947c9.677 0 17.516-7.84 17.516-17.518a9.065 9.065 0 00-.018-1.728z" fill="url(#paint0_linear)"/><path d="M33.937 23.535c0 2.892-2.346 5.257-5.239 5.257a5.26 5.26 0 01-5.257-5.257 5.244 5.244 0 015.257-5.238 5.24 5.24 0 015.239 5.238z" fill="#6E6F71"/><path d="M29.68 26.991l-.145-.618c-.018-.091-.11-.164-.2-.146a2.566 2.566 0 01-.837.037 2.805 2.805 0 01-1.819-.928.194.194 0 00-.218-.036l-.582.29c-.11.055-.128.183-.055.273l.037.055c.6.8 1.51 1.237 2.528 1.346.4.037.782.018 1.146-.054.11-.019.164-.11.145-.219zM28.48 20.807c.073-.018.145-.073.164-.146.036-.236.109-.673.109-.673.018-.109-.073-.218-.182-.2-1.983.146-3.547 1.8-3.547 3.802 0 .273.036.527.073.764.018.127.163.182.272.127.219-.127.419-.255.583-.346.072-.036.09-.109.09-.181-.018-.11-.018-.237-.018-.364 0-1.419 1.073-2.601 2.456-2.783z" fill="#fff"/><defs><linearGradient id="paint0_linear" x1="9.603" y1="28.022" x2="46.196" y2="28.022" gradientUnits="userSpaceOnUse"><stop stop-color="#96C93D"/><stop offset="1" stop-color="#4EB869"/></linearGradient></defs></svg>