<svg width="56" height="56" fill="none" xmlns="http://www.w3.org/2000/svg"><path d="M44.493 28c0 9.109-7.384 16.492-16.493 16.492-9.108 0-16.492-7.383-16.492-16.492 0-9.108 7.384-16.492 16.492-16.492 9.109 0 16.493 7.384 16.493 16.492z" fill="url(#paint0_radial)"/><path fill-rule="evenodd" clip-rule="evenodd" d="M28.369 8.776c-.24.08-.498.08-.738 0l-1.595-.532A1.167 1.167 0 0024.5 9.351v.466a1.02 1.02 0 001.342.968 1.02 1.02 0 011.338 1.069l-.23 2.3a1.056 1.056 0 102.1 0l-.23-2.3a1.02 1.02 0 011.338-1.07 1.02 1.02 0 001.342-.967v-.466c0-.796-.78-1.359-1.536-1.107l-1.595.532z" fill="url(#paint1_linear)"/><path fill-rule="evenodd" clip-rule="evenodd" d="M41.845 14.68a1.167 1.167 0 01-.522-.523l-.752-1.504a1.167 1.167 0 00-1.868-.303l-.33.33a1.02 1.02 0 00.265 1.633 1.02 1.02 0 01.19 1.701l-1.79 1.465a1.056 1.056 0 101.486 1.485l1.464-1.79a1.02 1.02 0 011.701.19 1.02 1.02 0 001.633.265l.33-.33a1.167 1.167 0 00-.303-1.868l-1.504-.752z" fill="url(#paint2_linear)"/><path fill-rule="evenodd" clip-rule="evenodd" d="M47.245 28.435c-.08-.24-.08-.498 0-.738l.532-1.595a1.167 1.167 0 00-1.107-1.536h-.467a1.02 1.02 0 00-.967 1.342 1.02 1.02 0 01-1.07 1.338l-2.3-.23a1.056 1.056 0 100 2.1l2.3-.23a1.02 1.02 0 011.07 1.338 1.02 1.02 0 00.967 1.342h.467c.796 0 1.358-.78 1.106-1.535l-.531-1.596z" fill="url(#paint3_linear)"/><path fill-rule="evenodd" clip-rule="evenodd" d="M41.291 41.927c.113-.225.296-.408.522-.521l1.504-.752a1.167 1.167 0 00.303-1.869l-.33-.33a1.02 1.02 0 00-1.633.265 1.02 1.02 0 01-1.701.19l-1.464-1.79a1.056 1.056 0 10-1.486 1.486l1.79 1.464a1.02 1.02 0 01-.19 1.702 1.02 1.02 0 00-.265 1.633l.33.33a1.167 1.167 0 001.868-.303l.752-1.505z" fill="url(#paint4_linear)"/><path fill-rule="evenodd" clip-rule="evenodd" d="M28.369 47.214c-.24-.08-.498-.08-.738 0l-1.595.531A1.167 1.167 0 0124.5 46.64v-.467a1.02 1.02 0 011.342-.967 1.02 1.02 0 001.338-1.07l-.23-2.3a1.056 1.056 0 112.1 0l-.23 2.3a1.02 1.02 0 001.338 1.07 1.02 1.02 0 011.342.967v.467c0 .796-.78 1.358-1.536 1.106l-1.595-.531z" fill="url(#paint5_linear)"/><path fill-rule="evenodd" clip-rule="evenodd" d="M14.665 41.859a1.167 1.167 0 00-.521-.522l-1.505-.752a1.167 1.167 0 01-.303-1.869l.33-.33a1.02 1.02 0 011.633.265 1.02 1.02 0 001.702.19l1.464-1.79a1.056 1.056 0 111.486 1.486l-1.79 1.465a1.02 1.02 0 00.19 1.701 1.02 1.02 0 01.265 1.633l-.33.33a1.167 1.167 0 01-1.869-.303l-.752-1.504z" fill="url(#paint6_linear)"/><path fill-rule="evenodd" clip-rule="evenodd" d="M8.718 28.435c.08-.24.08-.498 0-.738l-.532-1.595a1.167 1.167 0 011.107-1.536h.466c.696 0 1.188.682.967 1.342a1.02 1.02 0 001.07 1.338l2.3-.23a1.056 1.056 0 110 2.1l-2.3-.23a1.02 1.02 0 00-1.07 1.338 1.02 1.02 0 01-.967 1.342h-.466c-.797 0-1.359-.78-1.107-1.535l.532-1.596z" fill="url(#paint7_linear)"/><path fill-rule="evenodd" clip-rule="evenodd" d="M14.049 14.685c.225-.113.408-.296.521-.522l.752-1.504a1.167 1.167 0 011.869-.304l.33.33a1.02 1.02 0 01-.265 1.634 1.02 1.02 0 00-.19 1.701l1.79 1.464a1.056 1.056 0 11-1.486 1.486l-1.464-1.79a1.02 1.02 0 00-1.702.19 1.02 1.02 0 01-1.633.265l-.33-.33a1.167 1.167 0 01.303-1.868l1.505-.752z" fill="url(#paint8_linear)"/><path fill-rule="evenodd" clip-rule="evenodd" d="M34.792 19.999c.376.003.746.081 1.037.32.325.265.594.618.623 1.037.032.443-.153.878-.465 1.195-.314.319-.75.533-1.195.491-.418-.039-.773-.305-1.058-.613-.268-.291-.488-.678-.5-1.073-.013-.406.195-.792.5-1.058.288-.25.677-.303 1.058-.3z" fill="url(#paint9_linear)" fill-opacity=".4"/><path fill-rule="evenodd" clip-rule="evenodd" d="M27.089 35.835c-.006.586-.127 1.163-.498 1.617-.414.506-.965.925-1.617.971-.691.05-1.37-.24-1.863-.725-.498-.49-.83-1.168-.766-1.863.06-.651.444-1.205.925-1.648.453-.42 1.087-.761 1.704-.781.631-.02 1.233.304 1.648.78.39.448.473 1.055.467 1.649z" fill="url(#paint10_linear)" fill-opacity=".4"/><path fill-rule="evenodd" clip-rule="evenodd" d="M38.042 29.88c.514.04 1.049.258 1.463.565.475.352.822.875.877 1.463.062.642-.069 1.365-.57 1.77-.478.388-1.163.223-1.77.126-.486-.079-.896-.308-1.28-.616-.45-.364-.991-.707-1.074-1.28-.092-.627.13-1.337.64-1.714.478-.352 1.122-.36 1.714-.314z" fill="url(#paint11_linear)" fill-opacity=".4"/><path fill-rule="evenodd" clip-rule="evenodd" d="M17.73 23.643c.378-.003.75.157.996.443.232.27.25.64.242.996-.008.343-.052.7-.289.949-.241.253-.599.365-.949.35-.335-.015-.629-.195-.868-.431-.24-.238-.428-.53-.448-.868a1.33 1.33 0 01.339-.978 1.36 1.36 0 01.977-.46z" fill="url(#paint12_linear)" fill-opacity=".4"/><path fill-rule="evenodd" clip-rule="evenodd" d="M30.78 28.696c-.607.842-1.566 1.406-2.6 1.486-.973.076-1.827-.486-2.6-1.083-.748-.577-1.467-1.253-1.633-2.183-.168-.948.165-1.92.769-2.671.578-.72 1.454-1.078 2.366-1.223.918-.147 1.87-.085 2.651.42a3.655 3.655 0 011.616 2.34c.201 1.009.032 2.08-.57 2.914z" fill="url(#paint13_linear)" fill-opacity=".4"/><defs><linearGradient id="paint7_linear" x1="8.755" y1="28.066" x2="16.043" y2="28.203" gradientUnits="userSpaceOnUse"><stop stop-color="#F16037"/><stop offset="1" stop-color="#8F270A"/></linearGradient><linearGradient id="paint13_linear" x1="32.924" y1="25.776" x2="22.827" y2="27.678" gradientUnits="userSpaceOnUse"><stop stop-color="#4FBA6A"/><stop offset="1" stop-color="#1D4927"/></linearGradient><linearGradient id="paint2_linear" x1="41.531" y1="14.443" x2="35.099" y2="21.021" gradientUnits="userSpaceOnUse"><stop stop-color="#4FBA6A"/><stop offset="1" stop-color="#1D4927"/></linearGradient><linearGradient id="paint3_linear" x1="47.208" y1="28.066" x2="39.919" y2="28.203" gradientUnits="userSpaceOnUse"><stop stop-color="#F16037"/><stop offset="1" stop-color="#8F270A"/></linearGradient><linearGradient id="paint4_linear" x1="41.527" y1="41.613" x2="34.949" y2="35.182" gradientUnits="userSpaceOnUse"><stop stop-color="#4FBA6A"/><stop offset="1" stop-color="#1D4927"/></linearGradient><linearGradient id="paint5_linear" x1="28" y1="47.177" x2="28.136" y2="39.888" gradientUnits="userSpaceOnUse"><stop stop-color="#F16037"/><stop offset="1" stop-color="#8F270A"/></linearGradient><linearGradient id="paint6_linear" x1="14.43" y1="41.544" x2="21.007" y2="35.113" gradientUnits="userSpaceOnUse"><stop stop-color="#4FBA6A"/><stop offset="1" stop-color="#1D4927"/></linearGradient><linearGradient id="paint1_linear" x1="28" y1="8.813" x2="28.136" y2="16.101" gradientUnits="userSpaceOnUse"><stop stop-color="#F16037"/><stop offset="1" stop-color="#8F270A"/></linearGradient><linearGradient id="paint8_linear" x1="14.363" y1="14.449" x2="20.794" y2="21.027" gradientUnits="userSpaceOnUse"><stop stop-color="#4FBA6A"/><stop offset="1" stop-color="#1D4927"/></linearGradient><linearGradient id="paint9_linear" x1="33.233" y1="19.998" x2="36.277" y2="23.216" gradientUnits="userSpaceOnUse"><stop stop-color="#4FBA6A"/><stop offset="1" stop-color="#1D4927"/></linearGradient><linearGradient id="paint10_linear" x1="27.089" y1="33.405" x2="22.073" y2="38.15" gradientUnits="userSpaceOnUse"><stop stop-color="#4FBA6A"/><stop offset="1" stop-color="#1D4927"/></linearGradient><linearGradient id="paint11_linear" x1="35.668" y1="29.86" x2="39.684" y2="34.535" gradientUnits="userSpaceOnUse"><stop stop-color="#4FBA6A"/><stop offset="1" stop-color="#1D4927"/></linearGradient><linearGradient id="paint12_linear" x1="16.412" y1="23.643" x2="19.144" y2="26.195" gradientUnits="userSpaceOnUse"><stop stop-color="#4FBA6A"/><stop offset="1" stop-color="#1D4927"/></linearGradient><radialGradient id="paint0_radial" cx="0" cy="0" r="1" gradientUnits="userSpaceOnUse" gradientTransform="rotate(45 -19.799 47.8) scale(16.8112)"><stop stop-color="#97C93D"/><stop offset="1" stop-color="#4FBA69"/></radialGradient></defs></svg>