<svg width="56" height="56" fill="none" xmlns="http://www.w3.org/2000/svg"><path d="M9.34 19.822h37.28c.322 0 .584.261.584.583v19.218a2.333 2.333 0 01-2.334 2.333H11.672a2.333 2.333 0 01-2.333-2.334v-19.8z" fill="url(#paint0_linear)"/><path d="M9.043 16.619a2.333 2.333 0 012.122-2.528l33.071-2.894a2.333 2.333 0 012.528 2.122l.254 2.905a.583.583 0 01-.53.632l-37.14 3.25-.305-3.487z" fill="url(#paint1_linear)"/><mask id="a" maskUnits="userSpaceOnUse" x="8" y="11" width="40" height="10"><path d="M8.942 15.456a1.167 1.167 0 011.06-1.263l35.396-3.097a1.167 1.167 0 011.264 1.06l.407 4.65-37.72 3.3-.407-4.65z" fill="url(#paint2_linear)"/></mask><g mask="url(#a)"><g filter="url(#filter0_i)"><path d="M12.466 13.99l3.487-.306 2.637 5.621-3.487.305-2.637-5.62z" fill="url(#paint3_linear)"/></g><g filter="url(#filter1_i)"><path d="M19.45 13.367l3.487-.306 2.545 5.641-3.487.305-2.544-5.64z" fill="url(#paint4_linear)"/></g><g filter="url(#filter2_i)"><path d="M26.479 12.764l3.486-.305 2.404 5.64-3.487.306-2.403-5.641z" fill="url(#paint5_linear)"/></g><g filter="url(#filter3_i)"><path d="M33.49 12.142l3.487-.305 2.266 5.661-3.487.305-2.266-5.66z" fill="url(#paint6_linear)"/></g><g filter="url(#filter4_i)"><path d="M40.415 11.55l3.486-.306 2.23 5.652-3.487.305-2.23-5.652z" fill="url(#paint7_linear)"/></g></g><path d="M12.25 19.42a1.75 1.75 0 11-3.5 0 1.75 1.75 0 013.5 0z" fill="url(#paint8_linear)"/><g filter="url(#filter5_i)"><path d="M15.104 19.822h3.5l-2.09 4.7h-3.5l2.09-4.7z" fill="url(#paint9_linear)"/></g><g filter="url(#filter6_i)"><path d="M28.924 19.822h3.5l-2.111 4.675h-3.5l2.111-4.675z" fill="url(#paint10_linear)"/></g><g filter="url(#filter7_i)"><path d="M22.014 19.822h3.5l-2.155 4.68h-3.5l2.154-4.68z" fill="url(#paint11_linear)"/></g><g filter="url(#filter8_i)"><path d="M35.834 19.822h3.5l-2.145 4.65h-3.5l2.145-4.65z" fill="url(#paint12_linear)"/></g><g filter="url(#filter9_i)"><path d="M42.356 19.793h3.5l-2.244 4.704h-3.5l2.244-4.704z" fill="url(#paint13_linear)"/></g><path opacity=".8" d="M11.938 25.675c0-.644.522-1.166 1.166-1.166h30.334c.644 0 1.166.522 1.166 1.166V38.17c0 .645-.522 1.167-1.166 1.167H13.104a1.167 1.167 0 01-1.166-1.167V25.675z" fill="#fff"/><path d="M28.06 27.497a.233.233 0 01.423 0l1.139 2.436a.233.233 0 00.183.133l2.668.33a.233.233 0 01.13.402l-1.964 1.836a.233.233 0 00-.07.215l.51 2.64a.233.233 0 01-.341.249l-2.354-1.301a.234.234 0 00-.226 0l-2.353 1.3a.233.233 0 01-.342-.248l.51-2.64a.233.233 0 00-.07-.215l-1.964-1.836a.233.233 0 01.13-.402l2.67-.33c.079-.01.148-.06.182-.133l1.139-2.436z" fill="url(#paint14_linear)"/><defs><linearGradient id="paint2_linear" x1="8.84" y1="14.294" x2="11.582" y2="25.494" gradientUnits="userSpaceOnUse"><stop offset="0" stop-color="#98D7A8"/><stop offset="1" stop-color="#4FBA69"/></linearGradient><linearGradient id="paint14_linear" x1="23.574" y1="27.045" x2="32.497" y2="36.427" gradientUnits="userSpaceOnUse"><stop stop-color="#97C93D"/><stop offset="1" stop-color="#4FBA69"/></linearGradient><linearGradient id="paint13_linear" x1="40.522" y1="19.822" x2="45.576" y2="25.506" gradientUnits="userSpaceOnUse"><stop stop-color="#4FBA69"/><stop offset="1" stop-color="#2E753F"/></linearGradient><linearGradient id="paint12_linear" x1="33.611" y1="19.822" x2="38.666" y2="25.506" gradientUnits="userSpaceOnUse"><stop stop-color="#4FBA69"/><stop offset="1" stop-color="#2E753F"/></linearGradient><linearGradient id="paint11_linear" x1="19.791" y1="19.822" x2="24.845" y2="25.506" gradientUnits="userSpaceOnUse"><stop stop-color="#4FBA69"/><stop offset="1" stop-color="#2E753F"/></linearGradient><linearGradient id="paint10_linear" x1="26.701" y1="19.822" x2="31.756" y2="25.506" gradientUnits="userSpaceOnUse"><stop stop-color="#4FBA69"/><stop offset="1" stop-color="#2E753F"/></linearGradient><linearGradient id="paint9_linear" x1="12.879" y1="19.822" x2="17.933" y2="25.506" gradientUnits="userSpaceOnUse"><stop stop-color="#4FBA69"/><stop offset="1" stop-color="#2E753F"/></linearGradient><linearGradient id="paint8_linear" x1="8.75" y1="17.669" x2="12.25" y2="21.169" gradientUnits="userSpaceOnUse"><stop stop-color="#4FBA6A"/><stop offset="1" stop-color="#1D4927"/></linearGradient><linearGradient id="paint7_linear" x1="42.201" y1="12.131" x2="47.731" y2="17.353" gradientUnits="userSpaceOnUse"><stop stop-color="#4FBA69"/><stop offset="1" stop-color="#2E753F"/></linearGradient><linearGradient id="paint6_linear" x1="35.314" y1="12.734" x2="40.844" y2="17.955" gradientUnits="userSpaceOnUse"><stop stop-color="#4FBA69"/><stop offset="1" stop-color="#2E753F"/></linearGradient><linearGradient id="paint0_linear" x1="9.339" y1="19.822" x2="28.625" y2="52.816" gradientUnits="userSpaceOnUse"><stop stop-color="#97C93D"/><stop offset="1" stop-color="#4FBA69"/></linearGradient><linearGradient id="paint1_linear" x1="8.84" y1="14.294" x2="11.582" y2="25.494" gradientUnits="userSpaceOnUse"><stop stop-color="#97C93D"/><stop offset="1" stop-color="#4FBA69"/></linearGradient><linearGradient id="paint5_linear" x1="28.438" y1="13.335" x2="33.969" y2="18.557" gradientUnits="userSpaceOnUse"><stop stop-color="#4FBA69"/><stop offset="1" stop-color="#2E753F"/></linearGradient><linearGradient id="paint3_linear" x1="14.66" y1="14.541" x2="20.19" y2="19.762" gradientUnits="userSpaceOnUse"><stop stop-color="#4FBA69"/><stop offset="1" stop-color="#2E753F"/></linearGradient><linearGradient id="paint4_linear" x1="21.551" y1="13.938" x2="27.081" y2="19.159" gradientUnits="userSpaceOnUse"><stop stop-color="#4FBA69"/><stop offset="1" stop-color="#2E753F"/></linearGradient><filter id="filter1_i" x="19.451" y="13.062" width="6.031" height="7.946" filterUnits="userSpaceOnUse" color-interpolation-filters="sRGB"><feFlood flood-opacity="0" result="BackgroundImageFix"/><feBlend in="SourceGraphic" in2="BackgroundImageFix" result="shape"/><feColorMatrix in="SourceAlpha" values="0 0 0 0 0 0 0 0 0 0 0 0 0 0 0 0 0 0 127 0" result="hardAlpha"/><feOffset dy="2"/><feGaussianBlur stdDeviation="2"/><feComposite in2="hardAlpha" operator="arithmetic" k2="-1" k3="1"/><feColorMatrix values="0 0 0 0 0.0784314 0 0 0 0 0.517647 0 0 0 0 0.184314 0 0 0 0.1 0"/><feBlend in2="shape" result="effect1_innerShadow"/></filter><filter id="filter9_i" x="40.112" y="19.793" width="5.744" height="6.704" filterUnits="userSpaceOnUse" color-interpolation-filters="sRGB"><feFlood flood-opacity="0" result="BackgroundImageFix"/><feBlend in="SourceGraphic" in2="BackgroundImageFix" result="shape"/><feColorMatrix in="SourceAlpha" values="0 0 0 0 0 0 0 0 0 0 0 0 0 0 0 0 0 0 127 0" result="hardAlpha"/><feOffset dy="2"/><feGaussianBlur stdDeviation="2"/><feComposite in2="hardAlpha" operator="arithmetic" k2="-1" k3="1"/><feColorMatrix values="0 0 0 0 0.0784314 0 0 0 0 0.517647 0 0 0 0 0.184314 0 0 0 0.1 0"/><feBlend in2="shape" result="effect1_innerShadow"/></filter><filter id="filter8_i" x="33.69" y="19.822" width="5.645" height="6.651" filterUnits="userSpaceOnUse" color-interpolation-filters="sRGB"><feFlood flood-opacity="0" result="BackgroundImageFix"/><feBlend in="SourceGraphic" in2="BackgroundImageFix" result="shape"/><feColorMatrix in="SourceAlpha" values="0 0 0 0 0 0 0 0 0 0 0 0 0 0 0 0 0 0 127 0" result="hardAlpha"/><feOffset dy="2"/><feGaussianBlur stdDeviation="2"/><feComposite in2="hardAlpha" operator="arithmetic" k2="-1" k3="1"/><feColorMatrix values="0 0 0 0 0.0784314 0 0 0 0 0.517647 0 0 0 0 0.184314 0 0 0 0.1 0"/><feBlend in2="shape" result="effect1_innerShadow"/></filter><filter id="filter7_i" x="19.859" y="19.822" width="5.655" height="6.68" filterUnits="userSpaceOnUse" color-interpolation-filters="sRGB"><feFlood flood-opacity="0" result="BackgroundImageFix"/><feBlend in="SourceGraphic" in2="BackgroundImageFix" result="shape"/><feColorMatrix in="SourceAlpha" values="0 0 0 0 0 0 0 0 0 0 0 0 0 0 0 0 0 0 127 0" result="hardAlpha"/><feOffset dy="2"/><feGaussianBlur stdDeviation="2"/><feComposite in2="hardAlpha" operator="arithmetic" k2="-1" k3="1"/><feColorMatrix values="0 0 0 0 0.0784314 0 0 0 0 0.517647 0 0 0 0 0.184314 0 0 0 0.1 0"/><feBlend in2="shape" result="effect1_innerShadow"/></filter><filter id="filter6_i" x="26.813" y="19.822" width="5.611" height="6.675" filterUnits="userSpaceOnUse" color-interpolation-filters="sRGB"><feFlood flood-opacity="0" result="BackgroundImageFix"/><feBlend in="SourceGraphic" in2="BackgroundImageFix" result="shape"/><feColorMatrix in="SourceAlpha" values="0 0 0 0 0 0 0 0 0 0 0 0 0 0 0 0 0 0 127 0" result="hardAlpha"/><feOffset dy="2"/><feGaussianBlur stdDeviation="2"/><feComposite in2="hardAlpha" operator="arithmetic" k2="-1" k3="1"/><feColorMatrix values="0 0 0 0 0.0784314 0 0 0 0 0.517647 0 0 0 0 0.184314 0 0 0 0.1 0"/><feBlend in2="shape" result="effect1_innerShadow"/></filter><filter id="filter5_i" x="13.015" y="19.822" width="5.589" height="6.699" filterUnits="userSpaceOnUse" color-interpolation-filters="sRGB"><feFlood flood-opacity="0" result="BackgroundImageFix"/><feBlend in="SourceGraphic" in2="BackgroundImageFix" result="shape"/><feColorMatrix in="SourceAlpha" values="0 0 0 0 0 0 0 0 0 0 0 0 0 0 0 0 0 0 127 0" result="hardAlpha"/><feOffset dy="2"/><feGaussianBlur stdDeviation="2"/><feComposite in2="hardAlpha" operator="arithmetic" k2="-1" k3="1"/><feColorMatrix values="0 0 0 0 0.0784314 0 0 0 0 0.517647 0 0 0 0 0.184314 0 0 0 0.1 0"/><feBlend in2="shape" result="effect1_innerShadow"/></filter><filter id="filter4_i" x="40.415" y="11.244" width="5.716" height="7.957" filterUnits="userSpaceOnUse" color-interpolation-filters="sRGB"><feFlood flood-opacity="0" result="BackgroundImageFix"/><feBlend in="SourceGraphic" in2="BackgroundImageFix" result="shape"/><feColorMatrix in="SourceAlpha" values="0 0 0 0 0 0 0 0 0 0 0 0 0 0 0 0 0 0 127 0" result="hardAlpha"/><feOffset dy="2"/><feGaussianBlur stdDeviation="2"/><feComposite in2="hardAlpha" operator="arithmetic" k2="-1" k3="1"/><feColorMatrix values="0 0 0 0 0.0784314 0 0 0 0 0.517647 0 0 0 0 0.184314 0 0 0 0.1 0"/><feBlend in2="shape" result="effect1_innerShadow"/></filter><filter id="filter3_i" x="33.49" y="11.837" width="5.753" height="7.966" filterUnits="userSpaceOnUse" color-interpolation-filters="sRGB"><feFlood flood-opacity="0" result="BackgroundImageFix"/><feBlend in="SourceGraphic" in2="BackgroundImageFix" result="shape"/><feColorMatrix in="SourceAlpha" values="0 0 0 0 0 0 0 0 0 0 0 0 0 0 0 0 0 0 127 0" result="hardAlpha"/><feOffset dy="2"/><feGaussianBlur stdDeviation="2"/><feComposite in2="hardAlpha" operator="arithmetic" k2="-1" k3="1"/><feColorMatrix values="0 0 0 0 0.0784314 0 0 0 0 0.517647 0 0 0 0 0.184314 0 0 0 0.1 0"/><feBlend in2="shape" result="effect1_innerShadow"/></filter><filter id="filter2_i" x="26.479" y="12.459" width="5.89" height="7.946" filterUnits="userSpaceOnUse" color-interpolation-filters="sRGB"><feFlood flood-opacity="0" result="BackgroundImageFix"/><feBlend in="SourceGraphic" in2="BackgroundImageFix" result="shape"/><feColorMatrix in="SourceAlpha" values="0 0 0 0 0 0 0 0 0 0 0 0 0 0 0 0 0 0 127 0" result="hardAlpha"/><feOffset dy="2"/><feGaussianBlur stdDeviation="2"/><feComposite in2="hardAlpha" operator="arithmetic" k2="-1" k3="1"/><feColorMatrix values="0 0 0 0 0.0784314 0 0 0 0 0.517647 0 0 0 0 0.184314 0 0 0 0.1 0"/><feBlend in2="shape" result="effect1_innerShadow"/></filter><filter id="filter0_i" x="12.466" y="13.684" width="6.124" height="7.926" filterUnits="userSpaceOnUse" color-interpolation-filters="sRGB"><feFlood flood-opacity="0" result="BackgroundImageFix"/><feBlend in="SourceGraphic" in2="BackgroundImageFix" result="shape"/><feColorMatrix in="SourceAlpha" values="0 0 0 0 0 0 0 0 0 0 0 0 0 0 0 0 0 0 127 0" result="hardAlpha"/><feOffset dy="2"/><feGaussianBlur stdDeviation="2"/><feComposite in2="hardAlpha" operator="arithmetic" k2="-1" k3="1"/><feColorMatrix values="0 0 0 0 0.0784314 0 0 0 0 0.517647 0 0 0 0 0.184314 0 0 0 0.1 0"/><feBlend in2="shape" result="effect1_innerShadow"/></filter></defs></svg>