<svg width="56" height="56" fill="none" xmlns="http://www.w3.org/2000/svg"><path d="M7.647 27.655s-.363-1.103.403-1.582c.682-.426 15.935-10.596 19.238-12.799a1.13 1.13 0 011.26-.008c3.306 2.144 18.472 11.99 19.292 12.657.92.75.394 1.849.394 1.849l-20.263 8.782-20.324-8.9z" fill="url(#paint0_linear)"/><path d="M8 28.087a.583.583 0 01-.083-1.032l19.377-12.157c.38-.238.863-.238 1.242 0l19.44 12.24c.399.252.35.849-.085 1.032l-19.92 8.384L8 28.087z" fill="url(#paint1_linear)"/><mask id="a" maskUnits="userSpaceOnUse" x="7" y="14" width="42" height="23"><path d="M8 28.087a.583.583 0 01-.083-1.032l18.756-11.767a2.333 2.333 0 012.484.002l18.818 11.848c.4.252.35.849-.084 1.032l-19.466 8.193c-.29.122-.618.122-.908-.001L8 28.087z" fill="url(#paint2_linear)"/></mask><g opacity=".28" filter="url(#filter0_f)" mask="url(#a)"><path d="M14.052 28.013c0-.359.159-.696.465-.884 1.263-.776 5.23-2.705 13.441-2.705 8.212 0 12.179 1.93 13.442 2.705.306.188.465.525.465.884v11.548c0 .66-.528 1.204-1.183 1.275-1.337.144-3.608.526-5.77 1.529-2.463 1.141-5.066 2.638-6.27 3.35a1.269 1.269 0 01-1.343-.038c-1.165-.768-3.707-2.347-6.294-3.312-2.3-.858-4.563-1.285-5.855-1.478-.62-.092-1.098-.619-1.098-1.246V28.013z" fill="#141515"/></g><path d="M14.068 27.41s3.957-2.96 13.935-2.96c9.98 0 13.936 2.96 13.936 2.96v10.654c0 .57-.411 1.058-.973 1.157-1.423.252-4.105.75-5.995 1.251-2.017.535-4.793 1.51-6.152 2.002-.528.19-1.103.19-1.631 0-1.359-.491-4.134-1.467-6.152-2.002-1.89-.5-4.572-1-5.995-1.25a1.177 1.177 0 01-.973-1.158V27.41z" fill="url(#paint3_linear)"/><path d="M41.942 29.622v-2.214s-3.705-2.984-13.984-2.984c-10.278 0-13.906 2.994-13.906 2.994v2.26s4.921-2.88 13.906-2.88 13.984 2.824 13.984 2.824z" fill="url(#paint4_linear)"/><path fill-rule="evenodd" clip-rule="evenodd" d="M46.875 28.565l-.934.486v4.518c-.412.18-.7.591-.7 1.07v1.726c0 .13.105.234.234.234h1.866a.233.233 0 00.234-.233v-1.727c0-.479-.288-.89-.7-1.07v-5.004z" fill="url(#paint5_linear)"/><path d="M45.852 36.599h1.177s-.085 2.124.897 4.382c.981 2.257.542 4.381.542 4.381h-4.024s1.087-1.968.717-4.381c-.37-2.414.691-4.382.691-4.382z" fill="url(#paint6_linear)"/><defs><linearGradient id="paint0_linear" x1="29.965" y1="40.162" x2="27.632" y2="7.968" gradientUnits="userSpaceOnUse"><stop stop-color="#4FBA6A"/><stop offset="1" stop-color="#1D4927"/></linearGradient><linearGradient id="paint1_linear" x1="27.947" y1="14.792" x2="27.947" y2="35.969" gradientUnits="userSpaceOnUse"><stop stop-color="#4FBA6A"/><stop offset="1" stop-color="#1D4927"/></linearGradient><linearGradient id="paint2_linear" x1="27.947" y1="14.696" x2="28.038" y2="37.191" gradientUnits="userSpaceOnUse"><stop stop-color="#4FBA69"/><stop offset="1" stop-color="#2E753F"/></linearGradient><linearGradient id="paint3_linear" x1="14.068" y1="35.552" x2="41.939" y2="35.552" gradientUnits="userSpaceOnUse"><stop stop-color="#97C93D"/><stop offset="1" stop-color="#4FBA69"/></linearGradient><linearGradient id="paint4_linear" x1="14.052" y1="24.424" x2="15.964" y2="34.573" gradientUnits="userSpaceOnUse"><stop stop-color="#FFE299"/><stop offset="1" stop-color="#FEC32F"/></linearGradient><linearGradient id="paint5_linear" x1="44.609" y1="28.565" x2="50.477" y2="31.143" gradientUnits="userSpaceOnUse"><stop stop-color="#FFE299"/><stop offset="1" stop-color="#FEC32F"/></linearGradient><linearGradient id="paint6_linear" x1="43.253" y1="36.599" x2="51.186" y2="41.639" gradientUnits="userSpaceOnUse"><stop stop-color="#FFE299"/><stop offset="1" stop-color="#FEC32F"/></linearGradient><filter id="filter0_f" x="10.052" y="20.424" width="35.813" height="29.465" filterUnits="userSpaceOnUse" color-interpolation-filters="sRGB"><feFlood flood-opacity="0" result="BackgroundImageFix"/><feBlend in="SourceGraphic" in2="BackgroundImageFix" result="shape"/><feGaussianBlur stdDeviation="2" result="effect1_foregroundBlur"/></filter></defs></svg>