<svg width="56" height="56" fill="none" xmlns="http://www.w3.org/2000/svg"><path d="M32.798 25.373c0 2.65-2.15 4.794-4.791 4.794a4.797 4.797 0 01-4.805-4.794c0-2.649 2.15-4.794 4.805-4.794 2.641.015 4.791 2.16 4.791 4.794z" fill="url(#paint0_linear)"/><path d="M32.433 12.787l-2.192 5.41a.622.622 0 01-.8.336.607.607 0 01-.38-.603l.295-5.83c.042-.883.8-1.57 1.686-1.528a1.612 1.612 0 011.531 1.682c-.028.196-.07.364-.14.533z" fill="#F06036"/><path d="M41.523 10.306H37.94c-.267 0-.983.084-1.306.686l-4.44 8.27a.703.703 0 00.112.827c.281.28.73.28 1.012 0l.014-.014 8.598-8.256c.127-.126.352-.28.352-.743.014-.378-.366-.77-.76-.77z" fill="#4EB869"/><path d="M40.82 21.547l-5.69 1.317a.614.614 0 01-.745-.462.626.626 0 01.268-.66l4.945-3.125a1.614 1.614 0 012.22.49 1.606 1.606 0 01-.492 2.215 1.476 1.476 0 01-.506.225z" fill="#F06036"/><path d="M43.167 25.373c0-.49-.029-.967-.07-1.444 0-.056-.015-.112-.015-.168a.56.56 0 00-.548-.42h-.042l-.14.028-6.814 1.401-.099.029a.557.557 0 00-.393.504v.084c-.014 3.869-3.161 6.994-7.025 6.994-3.878 0-7.039-3.14-7.039-7.008 0-3.406 2.445-6.251 5.676-6.882.028-.014.07-.014.099-.014a.539.539 0 00.407-.49l-.014-.183-.59-6.798-.014-.224a.571.571 0 00-.506-.406c-.07.014-.126.014-.197.028-7.362 1.05-13.01 7.358-13.01 14.97 0 1.219.14 2.396.422 3.517.154.953 1.882 9.56 14.738 18.067 11.788-7.807 14.218-15.698 14.654-17.674.337-1.248.52-2.551.52-3.91z" fill="url(#paint1_linear)"/><defs><linearGradient id="paint0_linear" x1="23.198" y1="25.377" x2="32.797" y2="25.377" gradientUnits="userSpaceOnUse"><stop stop-color="#94C83D"/><stop offset="1" stop-color="#4EB869"/></linearGradient><linearGradient id="paint1_linear" x1="12.833" y1="28.669" x2="43.162" y2="28.669" gradientUnits="userSpaceOnUse"><stop stop-color="#94C83D"/><stop offset="1" stop-color="#4EB869"/></linearGradient></defs></svg>