<svg width="56" height="56" fill="none" xmlns="http://www.w3.org/2000/svg"><path fill-rule="evenodd" clip-rule="evenodd" d="M7.459 20.6a.583.583 0 00-.413.714l1.7 6.345a3.576 3.576 0 011.851 6.908l1.7 6.345a.583.583 0 00.715.413l34.738-9.308a.583.583 0 00.412-.715l-5.251-19.598a.583.583 0 00-.715-.413L7.46 20.6z" fill="url(#paint0_linear)"/><mask id="a" maskUnits="userSpaceOnUse" x="6" y="11" width="43" height="31"><path fill-rule="evenodd" clip-rule="evenodd" d="M42.76 11.14L6.895 20.75l1.851 6.909a3.576 3.576 0 011.851 6.908l1.851 6.909 35.865-9.61L42.76 11.14z" fill="#5A4309"/></mask><g filter="url(#filter0_f)" mask="url(#a)"><path fill-rule="evenodd" clip-rule="evenodd" d="M8.75 21.081c0-.322.261-.583.583-.583H46.61c.322 0 .584.261.584.583v6.57a3.576 3.576 0 000 7.151v6.569a.583.583 0 01-.584.583H9.333a.583.583 0 01-.583-.583v-6.569a3.576 3.576 0 000-7.152v-6.569z" fill="#8A6812"/></g><path fill-rule="evenodd" clip-rule="evenodd" d="M8.75 20.498h38.443v7.152a3.576 3.576 0 000 7.152v7.152H8.75v-7.152a3.576 3.576 0 000-7.152v-7.152z" fill="url(#paint1_linear)"/><path d="M38.908 23.06h2.333v2.333h-2.333v-2.334zM38.908 27.726h2.333v2.333h-2.333v-2.333zM38.908 32.393h2.333v2.333h-2.333v-2.333zM38.908 37.06h2.333v2.333h-2.333v-2.334z" fill="#986D01" fill-opacity=".5"/><defs><linearGradient id="paint0_linear" x1="6.895" y1="20.75" x2="33.178" y2="47.013" gradientUnits="userSpaceOnUse"><stop stop-color="#FEC32F"/><stop offset="1" stop-color="#986D01"/></linearGradient><linearGradient id="paint1_linear" x1="8.75" y1="20.498" x2="47.193" y2="41.954" gradientUnits="userSpaceOnUse"><stop stop-color="#FFE299"/><stop offset="1" stop-color="#FEC32F"/></linearGradient><filter id="filter0_f" x="4.75" y="16.498" width="46.443" height="29.456" filterUnits="userSpaceOnUse" color-interpolation-filters="sRGB"><feFlood flood-opacity="0" result="BackgroundImageFix"/><feBlend in="SourceGraphic" in2="BackgroundImageFix" result="shape"/><feGaussianBlur stdDeviation="2" result="effect1_foregroundBlur"/></filter></defs></svg>