<svg width="56" height="56" fill="none" xmlns="http://www.w3.org/2000/svg"><path d="M14.207 12.534c0-.644.523-1.167 1.167-1.167h25.632c.644 0 1.166.523 1.166 1.167v33.5c0 .643-.522 1.166-1.166 1.166H15.374a1.167 1.167 0 01-1.167-1.167V12.534z" fill="url(#paint0_linear)"/><path d="M14.207 12.534c0-.644.523-1.167 1.167-1.167h24.482c.645 0 1.167.523 1.167 1.167v33.5c0 .643-.522 1.166-1.167 1.166H15.374a1.167 1.167 0 01-1.167-1.167V12.534z" fill="url(#paint1_linear)"/><path d="M14 12.534c0-.644.522-1.167 1.167-1.167h23.371c.644 0 1.167.523 1.167 1.167v33.5c0 .643-.523 1.166-1.167 1.166H15.167A1.167 1.167 0 0114 46.033V12.534z" fill="url(#paint2_linear)"/><path opacity=".8" d="M18.881 17.85c0-.129.105-.233.234-.233h18.2c.129 0 .233.104.233.233v1.867a.233.233 0 01-.233.233h-18.2a.233.233 0 01-.234-.233V17.85zM16.548 22.517c0-.129.105-.233.233-.233h20.534c.129 0 .233.104.233.233v1.867a.233.233 0 01-.233.233H16.78a.233.233 0 01-.233-.233v-1.867zM16.548 27.183c0-.128.105-.233.233-.233h20.534c.129 0 .233.105.233.233v1.867a.233.233 0 01-.233.233H16.78a.233.233 0 01-.233-.233v-1.867z" fill="#fff"/><mask id="a" maskUnits="userSpaceOnUse" x="14" y="11" width="28" height="37"><path d="M14 11.95c0-.321.261-.583.583-.583h26.799c.322 0 .583.261.583.584v34.665a.583.583 0 01-.583.584H14.583a.583.583 0 01-.583-.584V11.951z" fill="url(#paint3_linear)"/></mask><g filter="url(#filter0_f)" mask="url(#a)"><path fill-rule="evenodd" clip-rule="evenodd" d="M44.097 25.017a.565.565 0 00-.799 0l-1.912 1.912 3.699 3.7 1.912-1.913a.565.565 0 000-.8l-2.9-2.9zm-2.712 1.912l3.7 3.7-11.551 11.55-.003.003-.002-.002-3.79.76a.565.565 0 01-.665-.665l.76-3.79-.003-.002 11.554-11.554z" fill="#049CEC" fill-opacity=".8"/></g><path d="M41.385 26.929l3.7 3.699L33.53 42.182l-3.7-3.7L41.385 26.93z" fill="url(#paint4_linear)"/><path d="M42.527 28.07l1.416 1.417L32.39 41.04l-1.416-1.417L42.527 28.07z" fill="url(#paint5_linear)"/><path d="M29.739 42.94a.565.565 0 01-.665-.665l.76-3.795 3.7 3.699-3.795.76z" fill="url(#paint6_linear)"/><path d="M43.298 25.017c.22-.221.578-.221.8 0l2.9 2.9c.22.22.22.578 0 .799l-1.913 1.912-3.7-3.7 1.913-1.912z" fill="url(#paint7_linear)"/><mask id="b" maskUnits="userSpaceOnUse" x="14" y="11" width="26" height="37"><path d="M14 11.367h25.705V47.2H14V11.367z" fill="url(#paint8_linear)"/></mask><g filter="url(#filter1_f)" mask="url(#b)"><path fill-rule="evenodd" clip-rule="evenodd" d="M18.102 8.802c-.644 0-1.166.523-1.166 1.167v2.334a1.167 1.167 0 002.333 0V9.969c0-.644-.522-1.167-1.167-1.167zm5.834 0c-.645 0-1.167.523-1.167 1.167v2.334a1.167 1.167 0 002.333 0V9.969c0-.644-.522-1.167-1.166-1.167zm4.666 1.167a1.167 1.167 0 112.334 0v2.334a1.167 1.167 0 01-2.334 0V9.969zm7-1.167c-.644 0-1.166.523-1.166 1.167v2.334a1.167 1.167 0 002.333 0V9.969c0-.644-.523-1.167-1.167-1.167z" fill="#049CEC" fill-opacity=".6"/></g><path d="M16.936 9.97a1.167 1.167 0 112.333 0v2.332a1.167 1.167 0 11-2.333 0V9.97z" fill="url(#paint9_linear)"/><path d="M22.769 9.97a1.167 1.167 0 112.333 0v2.332a1.167 1.167 0 11-2.333 0V9.97z" fill="url(#paint10_linear)"/><path d="M28.602 9.97a1.167 1.167 0 112.333 0v2.332a1.167 1.167 0 11-2.333 0V9.97z" fill="url(#paint11_linear)"/><path d="M34.435 9.97a1.167 1.167 0 112.334 0v2.332a1.167 1.167 0 11-2.334 0V9.97z" fill="url(#paint12_linear)"/><defs><linearGradient id="paint5_linear" x1="42.527" y1="28.07" x2="44.976" y2="31.204" gradientUnits="userSpaceOnUse"><stop offset="0" stop-color="#DAF1E0"/><stop offset="1" stop-color="#91D4A2"/></linearGradient><linearGradient id="paint12_linear" x1="34.435" y1="8.802" x2="38.087" y2="10.561" gradientUnits="userSpaceOnUse"><stop stop-color="#B4E5FD"/><stop offset="1" stop-color="#0586C7"/></linearGradient><linearGradient id="paint0_linear" x1="14.207" y1="11.367" x2="48.654" y2="37.266" gradientUnits="userSpaceOnUse"><stop stop-color="#B4E5FD"/><stop offset="1" stop-color="#0586C7"/></linearGradient><linearGradient id="paint1_linear" x1="40.833" y1="26.25" x2="16.131" y2="33.506" gradientUnits="userSpaceOnUse"><stop stop-color="#E6F6FE"/><stop offset="1" stop-color="#84D4FC"/></linearGradient><linearGradient id="paint2_linear" x1="14" y1="11.367" x2="47.542" y2="34.547" gradientUnits="userSpaceOnUse"><stop stop-color="#B4E5FD"/><stop offset="1" stop-color="#84D4FC"/></linearGradient><linearGradient id="paint3_linear" x1="14" y1="11.367" x2="48.759" y2="38.495" gradientUnits="userSpaceOnUse"><stop stop-color="#59C5FC"/><stop offset="1" stop-color="#049CEC"/></linearGradient><linearGradient id="paint4_linear" x1="41.385" y1="26.929" x2="45.947" y2="35.788" gradientUnits="userSpaceOnUse"><stop stop-color="#97C93D"/><stop offset="1" stop-color="#4FBA69"/></linearGradient><linearGradient id="paint11_linear" x1="28.602" y1="8.802" x2="32.254" y2="10.561" gradientUnits="userSpaceOnUse"><stop stop-color="#B4E5FD"/><stop offset="1" stop-color="#0586C7"/></linearGradient><linearGradient id="paint6_linear" x1="31.078" y1="44.635" x2="32.223" y2="38.962" gradientUnits="userSpaceOnUse"><stop stop-color="#4FBA6A"/><stop offset="1" stop-color="#1D4927"/></linearGradient><linearGradient id="paint7_linear" x1="43.697" y1="24.617" x2="42.451" y2="30.02" gradientUnits="userSpaceOnUse"><stop stop-color="#4FBA6A"/><stop offset="1" stop-color="#1D4927"/></linearGradient><linearGradient id="paint8_linear" x1="14" y1="11.367" x2="47.542" y2="34.547" gradientUnits="userSpaceOnUse"><stop stop-color="#B4E5FD"/><stop offset="1" stop-color="#84D4FC"/></linearGradient><linearGradient id="paint9_linear" x1="16.936" y1="8.802" x2="20.587" y2="10.561" gradientUnits="userSpaceOnUse"><stop stop-color="#B4E5FD"/><stop offset="1" stop-color="#0586C7"/></linearGradient><linearGradient id="paint10_linear" x1="22.769" y1="8.802" x2="26.42" y2="10.561" gradientUnits="userSpaceOnUse"><stop stop-color="#B4E5FD"/><stop offset="1" stop-color="#0586C7"/></linearGradient><filter id="filter1_f" x="14.935" y="6.802" width="23.833" height="8.667" filterUnits="userSpaceOnUse" color-interpolation-filters="sRGB"><feFlood flood-opacity="0" result="BackgroundImageFix"/><feBlend in="SourceGraphic" in2="BackgroundImageFix" result="shape"/><feGaussianBlur stdDeviation="1" result="effect1_foregroundBlur"/></filter><filter id="filter0_f" x="25.062" y="20.851" width="26.1" height="26.1" filterUnits="userSpaceOnUse" color-interpolation-filters="sRGB"><feFlood flood-opacity="0" result="BackgroundImageFix"/><feBlend in="SourceGraphic" in2="BackgroundImageFix" result="shape"/><feGaussianBlur stdDeviation="2" result="effect1_foregroundBlur"/></filter></defs></svg>