<svg width="56" height="56" fill="none" xmlns="http://www.w3.org/2000/svg"><path d="M8.773 16.35a2.333 2.333 0 012.334-2.333h33.786a2.333 2.333 0 012.334 2.334v23.298a2.333 2.333 0 01-2.334 2.334H11.107a2.333 2.333 0 01-2.334-2.334V16.351z" fill="url(#paint0_linear)"/><path d="M8.773 16.35a2.333 2.333 0 012.334-2.333h31.415a2.333 2.333 0 012.333 2.334v23.298a2.333 2.333 0 01-2.333 2.334H11.107a2.333 2.333 0 01-2.334-2.334V16.351z" fill="url(#paint1_linear)"/><path opacity=".8" d="M11.14 17.564c0-.644.523-1.166 1.167-1.166h29.015c.644 0 1.167.522 1.167 1.166v20.872c0 .644-.523 1.166-1.167 1.166H12.307a1.167 1.167 0 01-1.167-1.166V17.564z" fill="#fff"/><path d="M31.423 26.635c.622.467.622 1.4 0 1.866l-5.64 4.233a1.167 1.167 0 01-1.867-.933v-8.466c0-.961 1.098-1.51 1.867-.933l5.64 4.233z" fill="url(#paint2_linear)"/><defs><linearGradient id="paint0_linear" x1="8.773" y1="14.018" x2="35.378" y2="50.6" gradientUnits="userSpaceOnUse"><stop stop-color="#4FBA6A"/><stop offset="1" stop-color="#1D4927"/></linearGradient><linearGradient id="paint1_linear" x1="8.773" y1="14.018" x2="35.854" y2="48.959" gradientUnits="userSpaceOnUse"><stop stop-color="#97C93D"/><stop offset="1" stop-color="#4FBA69"/></linearGradient><linearGradient id="paint2_linear" x1="31.89" y1="22.167" x2="21.566" y2="29.785" gradientUnits="userSpaceOnUse"><stop stop-color="#97C93D"/><stop offset="1" stop-color="#4FBA69"/></linearGradient></defs></svg>