<svg width="56" height="56" fill="none" xmlns="http://www.w3.org/2000/svg"><g filter="url(#filter0_i)"><path d="M19.976 42.543a2.335 2.335 0 01-4.045-2.336c.645-1.117 4.124-2.473 4.124-2.473s.566 3.692-.08 4.809z" fill="url(#paint0_radial)"/></g><g filter="url(#filter1_i)"><path d="M39.21 42.584a2.335 2.335 0 11-4.045-2.336c.645-1.117 4.124-2.473 4.124-2.473s.566 3.692-.08 4.809z" fill="url(#paint1_radial)"/></g><g filter="url(#filter2_i)"><path d="M29.943 47.803a2.335 2.335 0 11-4.045-2.335c.645-1.117 4.125-2.473 4.125-2.473s.565 3.691-.08 4.808z" fill="url(#paint2_radial)"/></g><path d="M25.667 16.333a9.333 9.333 0 11-18.667 0 9.333 9.333 0 0118.667 0z" fill="url(#paint3_radial)"/><mask id="a" maskUnits="userSpaceOnUse" x="7" y="7" width="19" height="19"><path d="M25.667 16.333a9.333 9.333 0 11-18.667 0 9.333 9.333 0 0118.667 0z" fill="url(#paint4_radial)"/></mask><g opacity=".8" filter="url(#filter3_f)" mask="url(#a)"><path fill-rule="evenodd" clip-rule="evenodd" d="M16.334 25.667A9.333 9.333 0 0022.97 9.77c-4.278 1.825-7.363 5.905-7.76 10.747a7.042 7.042 0 00-1.21-.104c-1.866 0-3.561.73-4.816 1.92a9.314 9.314 0 007.15 3.334z" fill="#986D01"/></g><g filter="url(#filter4_i)"><path fill-rule="evenodd" clip-rule="evenodd" d="M14.017 34.413H14a7 7 0 111.21-13.896c.54-6.59 6.06-11.77 12.79-11.77 4.752 0 8.9 2.582 11.119 6.42l.22-.002a9.624 9.624 0 019.624 9.624c0 5.2-4.124 9.437-9.28 9.618v.006H14.018z" fill="url(#paint5_radial)"/></g><defs><radialGradient id="paint0_radial" cx="0" cy="0" r="1" gradientUnits="userSpaceOnUse" gradientTransform="matrix(3.5 -5.25 4.86574 3.24383 18.1 41.376)"><stop stop-color="#E6F6FE"/><stop offset="1" stop-color="#84D4FC"/></radialGradient><radialGradient id="paint5_radial" cx="0" cy="0" r="1" gradientUnits="userSpaceOnUse" gradientTransform="matrix(36.16672 33.83333 -30.48128 32.5835 24.5 17.5)"><stop stop-color="#E6F6FE"/><stop offset="1" stop-color="#84D4FC"/></radialGradient><radialGradient id="paint4_radial" cx="0" cy="0" r="1" gradientUnits="userSpaceOnUse" gradientTransform="rotate(45 -8.763 22.104) scale(13.4246)"><stop stop-color="#F9B881"/><stop offset="1" stop-color="#F48120"/></radialGradient><radialGradient id="paint3_radial" cx="0" cy="0" r="1" gradientUnits="userSpaceOnUse" gradientTransform="rotate(45 -8.37 21.616) scale(11.5494)"><stop stop-color="#FFE299"/><stop offset="1" stop-color="#FEC32F"/></radialGradient><radialGradient id="paint2_radial" cx="0" cy="0" r="1" gradientUnits="userSpaceOnUse" gradientTransform="matrix(3.5 -5.25 4.86574 3.24383 28.067 46.636)"><stop stop-color="#E6F6FE"/><stop offset="1" stop-color="#84D4FC"/></radialGradient><radialGradient id="paint1_radial" cx="0" cy="0" r="1" gradientUnits="userSpaceOnUse" gradientTransform="matrix(3.5 -5.25 4.86574 3.24383 37.333 41.417)"><stop stop-color="#E6F6FE"/><stop offset="1" stop-color="#84D4FC"/></radialGradient><filter id="filter1_i" x="34.852" y="37.775" width="4.667" height="5.976" filterUnits="userSpaceOnUse" color-interpolation-filters="sRGB"><feFlood flood-opacity="0" result="BackgroundImageFix"/><feBlend in="SourceGraphic" in2="BackgroundImageFix" result="shape"/><feColorMatrix in="SourceAlpha" values="0 0 0 0 0 0 0 0 0 0 0 0 0 0 0 0 0 0 127 0" result="hardAlpha"/><feOffset/><feGaussianBlur stdDeviation=".5"/><feComposite in2="hardAlpha" operator="arithmetic" k2="-1" k3="1"/><feColorMatrix values="0 0 0 0 0.0705882 0 0 0 0 0.552941 0 0 0 0 0.796078 0 0 0 0.5 0"/><feBlend in2="shape" result="effect1_innerShadow"/></filter><filter id="filter4_i" x="7" y="8.747" width="41.963" height="25.667" filterUnits="userSpaceOnUse" color-interpolation-filters="sRGB"><feFlood flood-opacity="0" result="BackgroundImageFix"/><feBlend in="SourceGraphic" in2="BackgroundImageFix" result="shape"/><feColorMatrix in="SourceAlpha" values="0 0 0 0 0 0 0 0 0 0 0 0 0 0 0 0 0 0 127 0" result="hardAlpha"/><feOffset/><feGaussianBlur stdDeviation="2.5"/><feComposite in2="hardAlpha" operator="arithmetic" k2="-1" k3="1"/><feColorMatrix values="0 0 0 0 0.0588235 0 0 0 0 0.54902 0 0 0 0 0.792157 0 0 0 0.3 0"/><feBlend in2="shape" result="effect1_innerShadow"/></filter><filter id="filter3_f" x="5.184" y="5.77" width="24.483" height="23.896" filterUnits="userSpaceOnUse" color-interpolation-filters="sRGB"><feFlood flood-opacity="0" result="BackgroundImageFix"/><feBlend in="SourceGraphic" in2="BackgroundImageFix" result="shape"/><feGaussianBlur stdDeviation="2" result="effect1_foregroundBlur"/></filter><filter id="filter2_i" x="25.585" y="42.995" width="4.667" height="5.976" filterUnits="userSpaceOnUse" color-interpolation-filters="sRGB"><feFlood flood-opacity="0" result="BackgroundImageFix"/><feBlend in="SourceGraphic" in2="BackgroundImageFix" result="shape"/><feColorMatrix in="SourceAlpha" values="0 0 0 0 0 0 0 0 0 0 0 0 0 0 0 0 0 0 127 0" result="hardAlpha"/><feOffset/><feGaussianBlur stdDeviation=".5"/><feComposite in2="hardAlpha" operator="arithmetic" k2="-1" k3="1"/><feColorMatrix values="0 0 0 0 0.0705882 0 0 0 0 0.552941 0 0 0 0 0.796078 0 0 0 0.5 0"/><feBlend in2="shape" result="effect1_innerShadow"/></filter><filter id="filter0_i" x="15.618" y="37.734" width="4.667" height="5.976" filterUnits="userSpaceOnUse" color-interpolation-filters="sRGB"><feFlood flood-opacity="0" result="BackgroundImageFix"/><feBlend in="SourceGraphic" in2="BackgroundImageFix" result="shape"/><feColorMatrix in="SourceAlpha" values="0 0 0 0 0 0 0 0 0 0 0 0 0 0 0 0 0 0 127 0" result="hardAlpha"/><feOffset/><feGaussianBlur stdDeviation=".5"/><feComposite in2="hardAlpha" operator="arithmetic" k2="-1" k3="1"/><feColorMatrix values="0 0 0 0 0.0705882 0 0 0 0 0.552941 0 0 0 0 0.796078 0 0 0 0.5 0"/><feBlend in2="shape" result="effect1_innerShadow"/></filter></defs></svg>