<svg width="41" height="40" fill="none" xmlns="http://www.w3.org/2000/svg"><path d="M13.94 4.553a16.569 16.569 0 00-5.514 3.661A16.615 16.615 0 003.544 20a16.607 16.607 0 004.882 11.785 16.549 16.549 0 005.513 3.66 16.588 16.588 0 006.272 1.22 16.619 16.619 0 0011.785-4.88A16.606 16.606 0 0036.876 20a16.622 16.622 0 00-4.88-11.786 16.62 16.62 0 00-11.785-4.88c-2.165 0-4.275.41-6.272 1.219zM7.71 27.016a11.438 11.438 0 01-2.198-1.768c-1-2.815-1.17-5.862-.507-8.755.312-.615.666-1.206 1.067-1.771.124-.175.239-.357.372-.526l3.76 2.225v.095a28.97 28.97 0 00.605 6.01l.005.022-2.917 4.574a2.314 2.314 0 01-.188-.106zm11.182 7.732c.65.331 1.317.61 2.003.838a15.63 15.63 0 01-8.457-2.048l6.305 1.123c.049.031.098.06.15.087zm-.023-1.138l-7.44-1.326a23.233 23.233 0 01-2.326-3.37c-.172-.305-.363-.6-.508-.917l2.914-4.57.218.056c1.823.487 3.678.834 5.546 1.106.11.015.2.028.279.037l3.493 6.04c-.606.851-1.22 1.699-1.846 2.537a7.27 7.27 0 01-.33.407zm12.38-2.573a15.494 15.494 0 01-1.88 1.603 14.283 14.283 0 00-.563-2.562l3.727-6.953c1.026-.468 2.017-.998 2.936-1.655.12-.085.22-.18.298-.284a15.53 15.53 0 01-4.519 9.85zm-.166-9.017c.139.264.275.531.413.802l-3.6 6.715c-.021.005-.041.01-.062.012a32.835 32.835 0 01-5.886.566l-3.592-6.212c.559-1.038 1.113-2.08 1.663-3.123.373-.707.74-1.42 1.105-2.13l7.436-.765c.91 1.336 1.773 2.7 2.523 4.135zm-1.509-7.966c-.352.932-.73 1.854-1.106 2.778l-7.243.744a5.923 5.923 0 00-.27-.334c-.856-.969-1.717-1.931-2.576-2.897l.023-.025-1.041-1.04 2.016-6.071c.14-.037.28-.068.42-.083 1.097-.112 2.195-.238 3.294-.301a16.04 16.04 0 012.034-.012l4.989 5.624c-.172.542-.34 1.086-.54 1.617zm1.674-5.092a15.543 15.543 0 013.196 4.628 15.848 15.848 0 00-2.977-1.6 8.937 8.937 0 00-.5-.185L26.056 6.27c.034-.239.052-.479.06-.72 1.867.76 3.619 1.9 5.132 3.412zM15.212 5.26c.02.015.029.027.04.03 1.122.388 2.143.959 3.106 1.636l-1.884 5.673-.028.01c-.385.16-.778.302-1.158.475-1.563.71-3.088 1.498-4.524 2.441l-3.717-2.199c.005-.116.025-.234.064-.339.25-.665.496-1.334.778-1.985.217-.502.465-.987.735-1.461a15.517 15.517 0 016.622-4.337 1.06 1.06 0 00-.034.056z" fill="#4fba69"/></svg>