<svg width="40" height="40" fill="none" xmlns="http://www.w3.org/2000/svg"><path fill="#4fba69" d="M28.333 30h3.333v6.667h-3.333z"/><path fill-rule="evenodd" clip-rule="evenodd" d="M5 31.917V9.75C5 6.265 7.848 5 9.762 5h20.397c1.75 0 3.174 1.42 3.174 3.167v22.166H9.781c-.733.02-1.606.308-1.606 1.584S9.048 33.48 9.78 33.5H30v3.167H9.762C7.848 36.667 5 35.402 5 31.917zm17.266-20.49a3.57 3.57 0 01.65-.063 3.754 3.754 0 013.75 3.75 3.75 3.75 0 01-2.045 3.336v2.8a.34.34 0 01-.34.34H14.056a.342.342 0 01-.34-.34l.003-2.795a3.739 3.739 0 01.791-6.97.341.341 0 01.387.483 4.71 4.71 0 00-.504 2.123.341.341 0 00.682 0A4.095 4.095 0 0119.166 10a4.06 4.06 0 013.1 1.427zm2.014 11.566H14.056a.341.341 0 00-.341.34l-.002.274A1.387 1.387 0 0015.104 25h8.126c.767 0 1.391-.624 1.391-1.391v-.275a.34.34 0 00-.34-.341z" fill="#4fba69"/></svg>