<svg width="40" height="40" xmlns="http://www.w3.org/2000/svg" fill="none" viewBox="0 0 25 25"><path fill="#4fba69" d="M21.3 11.8v.3h-2.1a7.2 7.2 0 00-1.5-3.5L19.2 7l.2.2c.8.8 2-.4 1.2-1.2h-.1v-.1l-.3-.2-1.3-1.3c-.8-.9-2 .4-1.2 1.2l.2.2-1.4 1.5c-1-.8-2.3-1.3-3.6-1.5v-2h.3c1.2 0 1.2-1.8 0-1.8h-2.4c-1.2 0-1.2 1.7 0 1.7h.3v2.1c-1.3.2-2.5.7-3.5 1.5L6 5.8l.2-.2c.8-.8-.4-2-1.2-1.2l-.2.2L3.4 6c-.9.8.4 2 1.2 1.2l.2-.2 1.5 1.5c-.8 1-1.3 2.2-1.5 3.5h-2v-.3c0-1.2-1.8-1.2-1.8 0v2.4c0 1.2 1.7 1.2 1.7 0V14h2.1c.2 1.3.7 2.5 1.5 3.5L4.8 19l-.2-.2c-.8-.8-2 .4-1.2 1.2v.1l.4.4 1.3 1.2c.8.9 2-.4 1.2-1.2l-.2-.2 1.5-1.5c1 .8 2.2 1.3 3.5 1.5v2h-.3c-1.2 0-1.2 1.8 0 1.8h2.4c1.2 0 1.2-1.7 0-1.7H13v-2.1c1.3-.2 2.5-.7 3.5-1.5l1.5 1.5-.2.2c-.8.8.4 2 1.2 1.2h.1v-.1h.1l.2-.2v-.1l1.3-1.3c.9-.8-.4-2-1.2-1.2l-.2.2-1.5-1.5c.8-1 1.3-2.2 1.5-3.5h2v.3c0 1.2 1.8 1.2 1.8 0v-2.4c0-1.2-1.7-1.2-1.7 0zm-10.9 1.8a2 2 0 110-3.9 2 2 0 010 3.9zm3.2 2.1a1.2 1.2 0 110-2.3 1.2 1.2 0 010 2.3z"/></svg>