<svg width="134" height="39" fill="none" xmlns="http://www.w3.org/2000/svg"><g clip-path="url(#clip0)"><path d="M21.352 2.576l-2.245 5.54a.632.632 0 01-.819.354.61.61 0 01-.385-.612l.305-5.974c.048-.902.818-1.61 1.717-1.562a1.649 1.649 0 011.556 1.723c-.016.177-.064.37-.129.531z" fill="#F06036"/><path d="M30.545 0h-3.658c-.272 0-1.01.08-1.331.709-.321.611-4.524 8.47-4.524 8.47a.737.737 0 00.112.853c.289.29.738.29 1.027 0l.016-.016 8.76-8.47c.128-.129.368-.29.368-.757 0-.403-.385-.789-.77-.789z" fill="#4EB869"/><path d="M29.743 10.982l-5.663 1.852a.617.617 0 01-.786-.402.629.629 0 01.224-.693l4.75-3.623a1.634 1.634 0 012.293.322 1.648 1.648 0 01-.32 2.303 2.064 2.064 0 01-.498.242z" fill="#F06036"/><path d="M32.23 14.01c0-.065-.016-.113-.016-.177a.587.587 0 00-.562-.435h-.032l-.144.032-6.947 1.45-.112.016a.571.571 0 00-.401.515v.097c-.016 4.058-3.37 7.326-7.46 7.166-3.69-.145-6.706-3.14-6.867-6.844-.16-3.656 2.375-6.732 5.776-7.392.032-.016.064-.016.096-.016a.567.567 0 00.417-.5l-.016-.192-.594-6.973-.016-.226a.588.588 0 00-.529-.418c-.064.016-.128.016-.209.032C7.122 1.224 1.363 7.68 1.363 15.508c0 5.153 2.503 9.71 6.337 12.528l-1.669.29a.425.425 0 00-.288.177L.128 36.635a.74.74 0 00.176 1.015l1.604 1.127A.733.733 0 002.92 38.6l5.615-8.116a.423.423 0 00.064-.339l-.385-1.706a15.387 15.387 0 008.583 2.608c8.535 0 15.45-6.94 15.45-15.507a8.064 8.064 0 00-.016-1.53z" fill="url(#paint0_linear)"/><path d="M21.48 15.524c0 2.56-2.069 4.653-4.62 4.653-2.55 0-4.636-2.077-4.636-4.653 0-2.56 2.07-4.638 4.636-4.638 2.551 0 4.62 2.077 4.62 4.638z" fill="#6E6F71"/><path d="M17.727 18.583l-.129-.547c-.016-.08-.096-.145-.176-.13-.24.05-.481.065-.738.033a2.47 2.47 0 01-1.604-.821.17.17 0 00-.193-.032l-.513.257c-.097.049-.113.161-.048.242l.032.048c.53.709 1.331 1.095 2.23 1.192.353.032.69.016 1.01-.049.097-.016.145-.096.129-.193zm-1.059-5.475c.064-.016.128-.064.144-.129.032-.21.097-.595.097-.595.016-.097-.065-.194-.16-.178a3.384 3.384 0 00-3.13 3.366c0 .242.033.467.065.676.016.113.144.161.24.113.193-.113.37-.226.514-.306.064-.032.08-.097.08-.161-.016-.097-.016-.21-.016-.322 0-1.256.947-2.303 2.166-2.464z" fill="#fff"/></g><path d="M49.941 23.17h3.506c-.417 1.363-1.235 2.49-2.452 3.346-1.217.855-2.543 1.291-3.996 1.291a6.79 6.79 0 01-2.58-.51 7.46 7.46 0 01-2.27-1.454 6.437 6.437 0 01-1.526-2.256 7.146 7.146 0 01-.545-2.764c0-1.892.672-3.474 2.016-4.802 1.344-1.31 2.98-1.964 4.887-1.964 1.453 0 2.779.437 4.014 1.31 1.235.873 2.035 2 2.434 3.383h-3.506c-.345-.564-.763-.983-1.235-1.255-.472-.273-1.072-.4-1.744-.4-1.126 0-2.016.363-2.706 1.073-.69.709-1.018 1.618-1.018 2.71 0 1.127.364 2.073 1.09 2.8.727.746 1.653 1.11 2.798 1.11a3.17 3.17 0 001.616-.437c.49-.309.909-.69 1.218-1.182zm11.626-9.113c1.89 0 3.488.672 4.796 2.016 1.308 1.345 1.98 2.98 1.98 4.886 0 1.89-.672 3.506-2.035 4.85-1.362 1.344-2.979 1.998-4.886 1.998-1.871 0-3.488-.672-4.832-2.034-1.362-1.344-2.035-2.96-2.035-4.832 0-1.925.673-3.56 2.035-4.904 1.362-1.308 3.015-1.98 4.977-1.98zm-.127 3.033c-.49 0-.98.11-1.435.31-.454.2-.872.49-1.217.853-.708.708-1.072 1.617-1.072 2.706 0 1.054.364 1.962 1.072 2.707.708.744 1.599 1.108 2.67 1.108 1.09 0 1.998-.364 2.707-1.09.708-.727 1.072-1.635 1.072-2.725 0-1.071-.364-1.98-1.09-2.742-.745-.763-1.635-1.127-2.707-1.127zm-4.287-4.128l2.998-3.212h2.47l3.034 3.212H62.62l-1.253-1.488-1.454 1.488h-2.76zM79.351 23.17h3.506c-.418 1.363-1.235 2.49-2.452 3.346-1.217.855-2.543 1.291-3.997 1.291a6.79 6.79 0 01-2.58-.51 7.46 7.46 0 01-2.27-1.454 6.44 6.44 0 01-1.526-2.256 7.146 7.146 0 01-.545-2.764c0-1.892.672-3.474 2.017-4.802 1.344-1.31 2.979-1.964 4.886-1.964 1.454 0 2.78.437 4.015 1.31 1.235.873 2.034 2 2.434 3.383h-3.506c-.345-.564-.763-.983-1.235-1.255-.49-.273-1.072-.4-1.744-.4-1.126 0-2.016.363-2.707 1.073-.69.709-1.035 1.618-1.035 2.71 0 1.127.363 2.073 1.09 2.8.726.746 1.653 1.11 2.797 1.11.582 0 1.127-.146 1.617-.437.527-.309.926-.69 1.235-1.182zm21 0h3.506c-.418 1.363-1.236 2.49-2.453 3.346-1.217.855-2.543 1.291-3.996 1.291a6.79 6.79 0 01-2.58-.51 7.46 7.46 0 01-2.27-1.454 6.204 6.204 0 01-1.526-2.256 7.146 7.146 0 01-.545-2.764c0-1.892.672-3.474 2.016-4.802 1.344-1.31 2.98-1.964 4.887-1.964 1.453 0 2.779.437 4.014 1.31 1.235.873 2.035 2 2.434 3.383h-3.506c-.345-.564-.744-.983-1.235-1.255-.49-.273-1.072-.4-1.744-.4-1.126 0-2.016.363-2.706 1.073-.69.709-1.036 1.618-1.036 2.71 0 1.127.364 2.073 1.09 2.8.727.746 1.653 1.11 2.798 1.11.581 0 1.126-.146 1.616-.437.509-.309.927-.69 1.236-1.182zm11.68-9.113c1.889 0 3.488.672 4.796 2.016 1.307 1.345 1.98 2.98 1.98 4.886 0 1.89-.673 3.506-2.035 4.85-1.344 1.344-2.979 1.998-4.886 1.998-1.871 0-3.488-.672-4.832-2.034-1.363-1.344-2.035-2.96-2.035-4.832 0-1.925.672-3.56 2.035-4.904 1.362-1.308 3.015-1.98 4.977-1.98zm-.145 3.033c-.491 0-.981.11-1.435.31-.455.2-.872.49-1.218.853-.708.708-1.071 1.617-1.071 2.706 0 1.054.363 1.962 1.071 2.707.709.744 1.599 1.108 2.671 1.108 1.09 0 1.998-.364 2.706-1.09.727-.727 1.072-1.635 1.072-2.725 0-1.071-.363-1.98-1.09-2.742-.726-.763-1.616-1.127-2.706-1.127zm-4.269-4.128l2.997-3.212h2.471l3.033 3.212h-3.033l-1.272-1.488-1.435 1.488h-2.761zM129.76 23.17h3.506c-.417 1.363-1.235 2.49-2.452 3.346-1.217.855-2.543 1.291-3.996 1.291a6.793 6.793 0 01-2.58-.51 7.469 7.469 0 01-2.271-1.454c-.672-.637-1.162-1.383-1.525-2.256-.364-.872-.527-1.8-.527-2.764 0-1.892.672-3.474 2.016-4.802 1.344-1.31 2.979-1.964 4.887-1.964 1.453 0 2.779.437 4.014 1.31 1.235.873 2.035 2 2.434 3.383h-3.506c-.345-.564-.763-.983-1.235-1.255-.49-.273-1.072-.4-1.744-.4-1.126 0-2.016.363-2.706 1.073-.691.709-1.036 1.618-1.036 2.71 0 1.127.363 2.073 1.09 2.8.727.746 1.653 1.11 2.798 1.11.581 0 1.126-.146 1.616-.437.509-.309.909-.69 1.217-1.182z" fill="#6E7171"/><path d="M64.655 6.374l1.09-2.85c.218-.562.4-.943.563-1.16.164-.219.364-.364.636-.436.473-.127.781.054.89.508.091.38-.145.944-.726 1.67L65 6.79c-.146.182-.255.273-.31.29-.108.019-.163 0-.2-.108-.035-.055.02-.254.164-.599zM66 7.699l1.962-2.341c.381-.454.69-.763.908-.926a.997.997 0 01.745-.2c.49.037.708.29.672.78-.037.4-.436.836-1.236 1.344l-2.87 1.85c-.2.128-.327.182-.4.182-.108 0-.163-.054-.145-.163 0-.073.127-.236.364-.526zm1.217 1.379l2.688-1.434c.527-.272.927-.453 1.181-.508a1.01 1.01 0 01.763.091c.436.218.545.544.327.98-.182.345-.727.617-1.653.78l-3.36.636c-.219.036-.364.054-.437.018-.09-.055-.127-.11-.072-.2.054-.072.236-.181.563-.363z" fill="#4FBA69"/><path d="M115.064 6.41l1.09-2.867c.218-.563.4-.944.563-1.18a1.13 1.13 0 01.636-.435c.473-.127.781.054.909.526.09.381-.146.944-.727 1.688l-2.107 2.704c-.146.181-.255.272-.309.29-.109.018-.164 0-.2-.109-.054-.072 0-.272.145-.617zm1.345 1.325l1.98-2.36c.381-.453.69-.761.908-.925.218-.163.472-.236.745-.218.49.037.726.309.672.78-.036.4-.436.854-1.254 1.362l-2.888 1.87c-.2.126-.327.18-.399.18-.109 0-.164-.054-.146-.163.018-.054.146-.236.382-.526zm1.235 1.398l2.707-1.434c.526-.272.926-.454 1.198-.508a1.01 1.01 0 01.763.09c.436.218.545.545.346.98-.182.345-.727.618-1.672.78l-3.378.636c-.237.036-.382.055-.436.018-.091-.054-.128-.127-.073-.2.036-.072.218-.199.545-.362z" fill="#F16037"/><defs><linearGradient id="paint0_linear" x1=".019" y1="19.495" x2="32.293" y2="19.495" gradientUnits="userSpaceOnUse"><stop stop-color="#96C93D"/><stop offset="1" stop-color="#4EB869"/></linearGradient><clipPath id="clip0"><path d="M0 0h32.49v38.952H0V0z" fill="#fff"/></clipPath></defs></svg>