<svg width="48" height="48" fill="none" xmlns="http://www.w3.org/2000/svg"><path d="M31.466 14.838a11.82 11.82 0 00-7.472-2.62c-.95 0-1.912.112-2.853.333-4.28 1.002-7.71 4.447-8.74 8.772-1.177 4.82.478 9.677 4.31 12.663.2.166.326.494.326.832v6.334c0 1.5 1.202 2.719 2.68 2.719h1.212c.53 1.301 1.728 2.13 3.117 2.13 1.35 0 2.571-.846 3.114-2.13h1.216c1.478 0 2.68-1.22 2.68-2.72v-6.38c0-.323.1-.584.27-.73 3.013-2.34 4.742-5.848 4.742-9.63-.05-3.741-1.724-7.23-4.602-9.573zm1.064 9.523c-.045 2.706-1.274 5.2-3.37 6.837-1.058.817-1.69 2.152-1.69 3.57l-6.941.01c-.012-1.413-.638-2.763-1.688-3.622-2.711-2.133-3.886-5.585-3.061-9.012.742-3.01 3.16-5.41 6.16-6.116 2.621-.624 5.31-.034 7.354 1.595a8.585 8.585 0 013.236 6.738zm-5.058 13.96v1.957H20.53v-1.956h6.942zM24 10.073c.975 0 1.768-.805 1.768-1.794V3.794C25.768 2.804 24.974 2 24 2c-.975 0-1.769.805-1.769 1.794V8.28c0 .99.794 1.794 1.769 1.794zm-9.91 4.147a1.821 1.821 0 000-2.545l-3.143-3.19c-.665-.673-1.846-.673-2.51 0a1.823 1.823 0 000 2.546l3.145 3.19c.33.336.776.521 1.254.521a1.75 1.75 0 001.255-.521zm-5.902 8.306h-4.42c-.975 0-1.768.805-1.768 1.795 0 .99.793 1.794 1.769 1.794h4.42c.975 0 1.768-.805 1.768-1.794 0-.99-.793-1.795-1.769-1.795zm36.043 0h-4.42c-.975 0-1.768.805-1.768 1.795 0 .99.794 1.794 1.769 1.794h4.42c.975 0 1.768-.805 1.768-1.794 0-.99-.793-1.795-1.769-1.795zM39.562 8.532c-.662-.674-1.844-.674-2.509 0l-3.144 3.19c-.33.336-.514.787-.514 1.272 0 .484.184.935.514 1.273.332.335.78.522 1.255.522a1.75 1.75 0 001.254-.522l3.154-3.2c.682-.75.678-1.84-.01-2.535z" opacity=".8" fill="#fff"/></svg>