<svg width="40" height="40" viewBox="0 0 36 36" fill="none" xmlns="http://www.w3.org/2000/svg"><path d="M6.477 27.644L8.4 29.575l2.454-2.452-1.936-1.945-2.44 2.466zM16.637 33h2.727v-4.041h-2.728V33zM18 9.78c-2.17 0-4.251.867-5.785 2.408A8.238 8.238 0 009.818 18c0 2.18.862 4.27 2.397 5.812A8.163 8.163 0 0018 26.219c2.17 0 4.251-.866 5.785-2.407A8.238 8.238 0 0026.182 18c0-4.548-3.668-8.22-8.182-8.22zm10.91 9.59H33v-2.74h-4.09v2.74zm-3.765 7.753l2.455 2.452 1.923-1.931-2.441-2.466-1.937 1.945zm4.378-18.767L27.6 6.425l-2.455 2.452 1.937 1.945 2.44-2.466zM19.363 3h-2.727v4.041h2.728V3zM7.092 16.63H3v2.74h4.09v-2.74zm3.763-7.753L8.4 6.425 6.477 8.356l2.441 2.466 1.937-1.945z" fill="#4FBA69"/></svg>